<svg width="471" height="282" viewBox="0 0 471 282" fill="none" xmlns="http://www.w3.org/2000/svg">
<path d="M218 200.5V91H232L231 209.5L230 216L229 221.5L227 227.5L225 233L222.5 239L219.5 244L216 249L212.5 253.5L208.5 258L205.5 261L201 264.5L197 267.5L193 270.5L189.5 273L185 275L180.5 277L176 278.5L170.5 280L166 281L160.5 282H156.5H150H145L139 281L133 280L127 278.5L123.5 277.5L120 276L117 274.5L114 273L111 271.5L108 269L105.5 267.5L102 265L100 263.5L97 261L94 257.5L91 254.5L87.5 250L84 245L81 240L80 237.5L78.5 234.5L77 231.5L75.5 228L74.5 224.5L73.5 220.5L73 217L72.5 214L72 210.5L71 179L68 178.5L64 177.5L60.5 176.5L57 175.5L55 174.5L50.5 172.5L47 171L44 169L40.5 166.5L37.5 164L34.5 161.5L30 156.5L26.5 152L23.5 147.5L20.5 141.5L19.5 138.5L1 71L0 68V66V62.5L1 57L3 51L6 46L9.5 41.5L13 38L16 35.5L21 33L24.5 32L27.5 31L29.5 30.5L31 30L32.5 28L34.5 26.5L37 25L39.5 24.5L43.5 24H49.5L57 24.5L59 25.5L61.5 26.5L65 29L67 33L67.5 38L66 43L63.5 46L61.5 48.5L59 49.5L55.5 51H48.5H41L37.5 50.5L35 49.5L33 48.5L31.5 47.5L30.5 45.5L29.5 44H28L23.5 46L19 49.5L16 53.5L14 57L13.5 61.5L14 68L32 135L35.5 141L39 146L44 151.5L49 155.5L53.5 158.5L57.5 160.5L61 162.5L65 164L68 165H70.5H71.5V164V143.5L51 123L50 120L50.5 118L51.5 115.5L53.5 113.5L55.5 113H58L60.5 113.5L71.5 124L72 74.5L72.5 74L74 72.5L76 71.5L78.5 71L81.5 71.5L83.5 73L85 75L85.5 105L97.5 94H99.5H101L103.5 95L105 96.5L106 99V102L105 104.5L85 123.5V136L97.5 125H98.5H101L103.5 126L106 129V132.5L105 135L85 154.5V164L86 165H89L94 163.5L99.5 162L104.5 159.5L111 155.5L116 150.5L120 146L124.5 139.5L127 135L128 132.5L145 70L145.5 68V66V63.5V61.5L145 60L144.5 58L143.5 56L142.5 54L141 52L138.5 49.5L136 47.5L133.5 46L131 44.5L128.5 44L127 45.5L125.5 47.5L124 49.5L121.5 50.5L119 51L101.5 50.5L100 50L98 49.5L96.5 48.5L95 47.5L93.5 45.5L92.5 44L92 40.5V37V35.5L92.5 33L93.5 30.5L94.5 29L96 27.5L98.5 25.5L101 24.5H105H109.5H115H119L122 25L124 26.5L126.5 28L130 30.5L134 31.5L139 33L143 35.5L147.5 39L151.5 43L154.5 47L156.5 51L158 56.5L159 61.5V66.5L157.5 72.5L156 79L142.5 128L140.5 134L138.5 139.5L137 143.5L134.5 148L133 150.5L129.5 154.5L127 157.5L124.5 160L121 163L117.5 166L113 169L108.5 171.5L105 173.5L101 175L97.5 176.5L95 177.5L92.5 178L90 178.5H87.5H85.5L86 208.5L86.5 214L87.5 220L89.5 226L91.5 230L93.5 234.5L97 239.5L100.5 245L105.5 250L109.5 254L115 258L120 261L124.5 263.5L130.5 265.5L136 267.5L141.5 268.5L147 269H151.5V257.5L129.5 236.5V234.5V232.5L130.5 230.5L131.5 229L133 228L134 227.5H136H137.5L139 228.5L152.5 240.5V229L129.5 207V206V203.5L130 201L131.5 199L133.5 197.5L135.5 197H137.5L139.5 197.5L152 208L152.5 155.5L153.5 154.5L155.5 153L158 152H160L162 153L164 154.5L165 156.5V179L177 168H179L181 168.5L182.5 169L184.5 170.5L185.5 172L186 174V176L184.5 178L165.5 196V211.5L177 201L178 200.5H179H181L182.5 201L183.5 202L184.5 203L185.5 204L186 206V207.5V209L185.5 210.5L184.5 212L165 231V267.5L170.5 266.5L176 264.5L182 262L188.5 258L194 253.5L200 247.5L204.5 242.5L208.5 236.5L211.5 231L214.5 224L217 216L218 209V200.5Z" fill="#A2C576"/>
<path d="M271 46C271 71.4051 250.405 92 225 92C199.595 92 179 71.4051 179 46C179 20.5949 199.595 0 225 0C250.405 0 271 20.5949 271 46ZM192.959 46C192.959 63.6958 207.304 78.0411 225 78.0411C242.696 78.0411 257.041 63.6958 257.041 46C257.041 28.3042 242.696 13.9589 225 13.9589C207.304 13.9589 192.959 28.3042 192.959 46Z" fill="#A2C576"/>
<circle cx="225" cy="46" r="25" fill="#4EC8EC"/>
<mask id="path-4-outside-1_89_22" maskUnits="userSpaceOnUse" x="254" y="96" width="217" height="49" fill="black">
<rect fill="white" x="254" y="96" width="217" height="49"/>
<path d="M294.16 97.728V144H285.52V123.776H263.792V144H255.152V97.728H263.792V117.632H285.52V97.728H294.16ZM328.913 126.528L323.281 111.136C323.003 110.453 322.715 109.643 322.417 108.704C322.118 107.765 321.819 106.752 321.521 105.664C321.243 106.752 320.955 107.776 320.657 108.736C320.358 109.675 320.07 110.496 319.793 111.2L314.193 126.528H328.913ZM344.113 144H337.457C336.71 144 336.102 143.819 335.633 143.456C335.163 143.072 334.811 142.603 334.576 142.048L331.121 132.608H311.953L308.497 142.048C308.326 142.539 307.995 142.987 307.505 143.392C307.014 143.797 306.406 144 305.681 144H298.96L317.169 97.728H325.937L344.113 144ZM362.886 119.744C364.507 119.744 365.915 119.541 367.11 119.136C368.326 118.731 369.318 118.176 370.086 117.472C370.875 116.747 371.462 115.893 371.846 114.912C372.23 113.931 372.422 112.853 372.422 111.68C372.422 109.333 371.643 107.531 370.086 106.272C368.55 105.013 366.193 104.384 363.014 104.384H357.51V119.744H362.886ZM385.03 144H377.254C375.782 144 374.715 143.424 374.054 142.272L364.326 127.456C363.963 126.901 363.558 126.507 363.11 126.272C362.683 126.037 362.043 125.92 361.19 125.92H357.51V144H348.902V97.728H363.014C366.15 97.728 368.838 98.0587 371.078 98.72C373.339 99.36 375.185 100.267 376.614 101.44C378.065 102.613 379.131 104.021 379.814 105.664C380.497 107.285 380.838 109.077 380.838 111.04C380.838 112.597 380.603 114.069 380.134 115.456C379.686 116.843 379.025 118.101 378.15 119.232C377.297 120.363 376.23 121.355 374.95 122.208C373.691 123.061 372.251 123.733 370.63 124.224C371.185 124.544 371.697 124.928 372.166 125.376C372.635 125.803 373.062 126.315 373.446 126.912L385.03 144ZM428.238 97.728L409.55 144H401.774L383.085 97.728H389.998C390.744 97.728 391.352 97.9093 391.822 98.272C392.291 98.6347 392.643 99.104 392.878 99.68L403.79 127.904C404.152 128.821 404.494 129.835 404.814 130.944C405.155 132.032 405.475 133.173 405.774 134.368C406.03 133.173 406.307 132.032 406.606 130.944C406.904 129.835 407.235 128.821 407.598 127.904L418.446 99.68C418.616 99.1893 418.947 98.7413 419.438 98.336C419.95 97.9307 420.568 97.728 421.294 97.728H428.238ZM453.788 126.528L448.156 111.136C447.878 110.453 447.59 109.643 447.292 108.704C446.993 107.765 446.694 106.752 446.396 105.664C446.118 106.752 445.83 107.776 445.532 108.736C445.233 109.675 444.945 110.496 444.668 111.2L439.068 126.528H453.788ZM468.988 144H462.332C461.585 144 460.977 143.819 460.508 143.456C460.038 143.072 459.686 142.603 459.451 142.048L455.996 132.608H436.828L433.372 142.048C433.201 142.539 432.87 142.987 432.38 143.392C431.889 143.797 431.281 144 430.556 144H423.835L442.044 97.728H450.812L468.988 144Z"/>
</mask>
<path d="M294.16 97.728V144H285.52V123.776H263.792V144H255.152V97.728H263.792V117.632H285.52V97.728H294.16ZM328.913 126.528L323.281 111.136C323.003 110.453 322.715 109.643 322.417 108.704C322.118 107.765 321.819 106.752 321.521 105.664C321.243 106.752 320.955 107.776 320.657 108.736C320.358 109.675 320.07 110.496 319.793 111.2L314.193 126.528H328.913ZM344.113 144H337.457C336.71 144 336.102 143.819 335.633 143.456C335.163 143.072 334.811 142.603 334.576 142.048L331.121 132.608H311.953L308.497 142.048C308.326 142.539 307.995 142.987 307.505 143.392C307.014 143.797 306.406 144 305.681 144H298.96L317.169 97.728H325.937L344.113 144ZM362.886 119.744C364.507 119.744 365.915 119.541 367.11 119.136C368.326 118.731 369.318 118.176 370.086 117.472C370.875 116.747 371.462 115.893 371.846 114.912C372.23 113.931 372.422 112.853 372.422 111.68C372.422 109.333 371.643 107.531 370.086 106.272C368.55 105.013 366.193 104.384 363.014 104.384H357.51V119.744H362.886ZM385.03 144H377.254C375.782 144 374.715 143.424 374.054 142.272L364.326 127.456C363.963 126.901 363.558 126.507 363.11 126.272C362.683 126.037 362.043 125.92 361.19 125.92H357.51V144H348.902V97.728H363.014C366.15 97.728 368.838 98.0587 371.078 98.72C373.339 99.36 375.185 100.267 376.614 101.44C378.065 102.613 379.131 104.021 379.814 105.664C380.497 107.285 380.838 109.077 380.838 111.04C380.838 112.597 380.603 114.069 380.134 115.456C379.686 116.843 379.025 118.101 378.15 119.232C377.297 120.363 376.23 121.355 374.95 122.208C373.691 123.061 372.251 123.733 370.63 124.224C371.185 124.544 371.697 124.928 372.166 125.376C372.635 125.803 373.062 126.315 373.446 126.912L385.03 144ZM428.238 97.728L409.55 144H401.774L383.085 97.728H389.998C390.744 97.728 391.352 97.9093 391.822 98.272C392.291 98.6347 392.643 99.104 392.878 99.68L403.79 127.904C404.152 128.821 404.494 129.835 404.814 130.944C405.155 132.032 405.475 133.173 405.774 134.368C406.03 133.173 406.307 132.032 406.606 130.944C406.904 129.835 407.235 128.821 407.598 127.904L418.446 99.68C418.616 99.1893 418.947 98.7413 419.438 98.336C419.95 97.9307 420.568 97.728 421.294 97.728H428.238ZM453.788 126.528L448.156 111.136C447.878 110.453 447.59 109.643 447.292 108.704C446.993 107.765 446.694 106.752 446.396 105.664C446.118 106.752 445.83 107.776 445.532 108.736C445.233 109.675 444.945 110.496 444.668 111.2L439.068 126.528H453.788ZM468.988 144H462.332C461.585 144 460.977 143.819 460.508 143.456C460.038 143.072 459.686 142.603 459.451 142.048L455.996 132.608H436.828L433.372 142.048C433.201 142.539 432.87 142.987 432.38 143.392C431.889 143.797 431.281 144 430.556 144H423.835L442.044 97.728H450.812L468.988 144Z" fill="#A2C576"/>
<path d="M294.16 97.728H295.16V96.728H294.16V97.728ZM294.16 144V145H295.16V144H294.16ZM285.52 144H284.52V145H285.52V144ZM285.52 123.776H286.52V122.776H285.52V123.776ZM263.792 123.776V122.776H262.792V123.776H263.792ZM263.792 144V145H264.792V144H263.792ZM255.152 144H254.152V145H255.152V144ZM255.152 97.728V96.728H254.152V97.728H255.152ZM263.792 97.728H264.792V96.728H263.792V97.728ZM263.792 117.632H262.792V118.632H263.792V117.632ZM285.52 117.632V118.632H286.52V117.632H285.52ZM285.52 97.728V96.728H284.52V97.728H285.52ZM294.16 97.728H293.16V144H294.16H295.16V97.728H294.16ZM294.16 144V143H285.52V144V145H294.16V144ZM285.52 144H286.52V123.776H285.52H284.52V144H285.52ZM285.52 123.776V122.776H263.792V123.776V124.776H285.52V123.776ZM263.792 123.776H262.792V144H263.792H264.792V123.776H263.792ZM263.792 144V143H255.152V144V145H263.792V144ZM255.152 144H256.152V97.728H255.152H254.152V144H255.152ZM255.152 97.728V98.728H263.792V97.728V96.728H255.152V97.728ZM263.792 97.728H262.792V117.632H263.792H264.792V97.728H263.792ZM263.792 117.632V118.632H285.52V117.632V116.632H263.792V117.632ZM285.52 117.632H286.52V97.728H285.52H284.52V117.632H285.52ZM285.52 97.728V98.728H294.16V97.728V96.728H285.52V97.728ZM328.913 126.528V127.528H330.343L329.852 126.184L328.913 126.528ZM323.281 111.136L324.22 110.792L324.214 110.776L324.207 110.76L323.281 111.136ZM322.417 108.704L323.369 108.401L323.369 108.401L322.417 108.704ZM321.521 105.664L322.485 105.399L321.485 101.756L320.551 105.417L321.521 105.664ZM320.657 108.736L321.609 109.039L321.611 109.033L320.657 108.736ZM319.793 111.2L318.862 110.833L318.858 110.845L318.853 110.857L319.793 111.2ZM314.193 126.528L313.253 126.185L312.763 127.528H314.193V126.528ZM344.113 144V145H345.58L345.043 143.634L344.113 144ZM335.633 143.456L334.999 144.23L335.01 144.239L335.021 144.247L335.633 143.456ZM334.576 142.048L333.637 142.392L333.646 142.415L333.656 142.438L334.576 142.048ZM331.121 132.608L332.06 132.264L331.819 131.608H331.121V132.608ZM311.953 132.608V131.608H311.254L311.013 132.264L311.953 132.608ZM308.497 142.048L307.557 141.704L307.555 141.712L307.552 141.719L308.497 142.048ZM307.505 143.392L306.868 142.621L307.505 143.392ZM298.96 144L298.03 143.634L297.492 145H298.96V144ZM317.169 97.728V96.728H316.487L316.238 97.3618L317.169 97.728ZM325.937 97.728L326.867 97.3624L326.618 96.728H325.937V97.728ZM328.913 126.528L329.852 126.184L324.22 110.792L323.281 111.136L322.341 111.48L327.973 126.872L328.913 126.528ZM323.281 111.136L324.207 110.76C323.942 110.107 323.663 109.322 323.369 108.401L322.417 108.704L321.464 109.007C321.768 109.963 322.064 110.799 322.354 111.512L323.281 111.136ZM322.417 108.704L323.369 108.401C323.075 107.477 322.78 106.476 322.485 105.399L321.521 105.664L320.556 105.929C320.858 107.028 321.16 108.054 321.464 109.007L322.417 108.704ZM321.521 105.664L320.551 105.417C320.278 106.49 319.995 107.497 319.702 108.439L320.657 108.736L321.611 109.033C321.916 108.055 322.208 107.014 322.49 105.911L321.521 105.664ZM320.657 108.736L319.704 108.433C319.41 109.356 319.129 110.155 318.862 110.833L319.793 111.2L320.723 111.567C321.01 110.837 321.306 109.993 321.609 109.039L320.657 108.736ZM319.793 111.2L318.853 110.857L313.253 126.185L314.193 126.528L315.132 126.871L320.732 111.543L319.793 111.2ZM314.193 126.528V127.528H328.913V126.528V125.528H314.193V126.528ZM344.113 144V143H337.457V144V145H344.113V144ZM337.457 144V143C336.873 143 336.497 142.86 336.244 142.665L335.633 143.456L335.021 144.247C335.707 144.777 336.547 145 337.457 145V144ZM335.633 143.456L336.266 142.682C335.921 142.4 335.668 142.062 335.497 141.658L334.576 142.048L333.656 142.438C333.954 143.143 334.405 143.744 334.999 144.23L335.633 143.456ZM334.576 142.048L335.516 141.704L332.06 132.264L331.121 132.608L330.181 132.952L333.637 142.392L334.576 142.048ZM331.121 132.608V131.608H311.953V132.608V133.608H331.121V132.608ZM311.953 132.608L311.013 132.264L307.557 141.704L308.497 142.048L309.436 142.392L312.892 132.952L311.953 132.608ZM308.497 142.048L307.552 141.719C307.454 142.002 307.249 142.306 306.868 142.621L307.505 143.392L308.141 144.163C308.741 143.667 309.198 143.075 309.441 142.377L308.497 142.048ZM307.505 143.392L306.868 142.621C306.581 142.858 306.208 143 305.681 143V144V145C306.604 145 307.447 144.737 308.141 144.163L307.505 143.392ZM305.681 144V143H298.96V144V145H305.681V144ZM298.96 144L299.891 144.366L318.099 98.0942L317.169 97.728L316.238 97.3618L298.03 143.634L298.96 144ZM317.169 97.728V98.728H325.937V97.728V96.728H317.169V97.728ZM325.937 97.728L325.006 98.0936L343.182 144.366L344.113 144L345.043 143.634L326.867 97.3624L325.937 97.728ZM367.11 119.136L366.794 118.187L366.789 118.189L367.11 119.136ZM370.086 117.472L370.762 118.209L370.763 118.208L370.086 117.472ZM370.086 106.272L369.452 107.045L369.457 107.05L370.086 106.272ZM357.51 104.384V103.384H356.51V104.384H357.51ZM357.51 119.744H356.51V120.744H357.51V119.744ZM385.03 144V145H386.916L385.858 143.439L385.03 144ZM374.054 142.272L374.921 141.774L374.906 141.748L374.89 141.723L374.054 142.272ZM364.326 127.456L363.489 128.003L363.49 128.005L364.326 127.456ZM363.11 126.272L362.628 127.148L362.637 127.153L362.646 127.158L363.11 126.272ZM357.51 125.92V124.92H356.51V125.92H357.51ZM357.51 144V145H358.51V144H357.51ZM348.902 144H347.902V145H348.902V144ZM348.902 97.728V96.728H347.902V97.728H348.902ZM371.078 98.72L370.795 99.6791L370.806 99.6822L371.078 98.72ZM376.614 101.44L375.979 102.213L375.985 102.218L376.614 101.44ZM379.814 105.664L378.891 106.048L378.892 106.052L379.814 105.664ZM380.134 115.456L379.187 115.135L379.182 115.149L380.134 115.456ZM378.15 119.232L377.359 118.62L377.352 118.63L378.15 119.232ZM374.95 122.208L374.395 121.376L374.389 121.38L374.95 122.208ZM370.63 124.224L370.34 123.267L368.13 123.936L370.13 125.09L370.63 124.224ZM372.166 125.376L371.476 126.099L371.484 126.108L371.493 126.116L372.166 125.376ZM373.446 126.912L372.605 127.453L372.611 127.463L372.618 127.473L373.446 126.912ZM362.886 119.744V120.744C364.587 120.744 366.108 120.532 367.431 120.083L367.11 119.136L366.789 118.189C365.722 118.551 364.428 118.744 362.886 118.744V119.744ZM367.11 119.136L367.426 120.085C368.746 119.645 369.869 119.027 370.762 118.209L370.086 117.472L369.41 116.735C368.767 117.325 367.906 117.816 366.794 118.187L367.11 119.136ZM370.086 117.472L370.763 118.208C371.662 117.382 372.337 116.402 372.777 115.276L371.846 114.912L370.915 114.548C370.587 115.385 370.089 116.111 369.409 116.736L370.086 117.472ZM371.846 114.912L372.777 115.276C373.212 114.166 373.422 112.964 373.422 111.68H372.422H371.422C371.422 112.743 371.248 113.695 370.915 114.548L371.846 114.912ZM372.422 111.68H373.422C373.422 109.089 372.549 106.976 370.715 105.494L370.086 106.272L369.457 107.05C370.738 108.085 371.422 109.577 371.422 111.68H372.422ZM370.086 106.272L370.72 105.499C368.925 104.028 366.294 103.384 363.014 103.384V104.384V105.384C366.091 105.384 368.175 105.999 369.452 107.045L370.086 106.272ZM363.014 104.384V103.384H357.51V104.384V105.384H363.014V104.384ZM357.51 104.384H356.51V119.744H357.51H358.51V104.384H357.51ZM357.51 119.744V120.744H362.886V119.744V118.744H357.51V119.744ZM385.03 144V143H377.254V144V145H385.03V144ZM377.254 144V143C376.093 143 375.382 142.577 374.921 141.774L374.054 142.272L373.187 142.77C374.049 144.271 375.471 145 377.254 145V144ZM374.054 142.272L374.89 141.723L365.162 126.907L364.326 127.456L363.49 128.005L373.218 142.821L374.054 142.272ZM364.326 127.456L365.163 126.909C364.735 126.254 364.213 125.721 363.574 125.386L363.11 126.272L362.646 127.158C362.903 127.292 363.192 127.548 363.489 128.003L364.326 127.456ZM363.11 126.272L363.592 125.396C362.945 125.04 362.102 124.92 361.19 124.92V125.92V126.92C361.984 126.92 362.422 127.035 362.628 127.148L363.11 126.272ZM361.19 125.92V124.92H357.51V125.92V126.92H361.19V125.92ZM357.51 125.92H356.51V144H357.51H358.51V125.92H357.51ZM357.51 144V143H348.902V144V145H357.51V144ZM348.902 144H349.902V97.728H348.902H347.902V144H348.902ZM348.902 97.728V98.728H363.014V97.728V96.728H348.902V97.728ZM363.014 97.728V98.728C366.085 98.728 368.672 99.0524 370.795 99.6791L371.078 98.72L371.361 97.7609C369.004 97.065 366.215 96.728 363.014 96.728V97.728ZM371.078 98.72L370.806 99.6822C372.969 100.294 374.681 101.147 375.98 102.213L376.614 101.44L377.248 100.667C375.688 99.3862 373.71 98.4255 371.35 97.7578L371.078 98.72ZM376.614 101.44L375.985 102.218C377.313 103.291 378.275 104.566 378.891 106.048L379.814 105.664L380.737 105.28C379.988 103.476 378.816 101.935 377.243 100.662L376.614 101.44ZM379.814 105.664L378.892 106.052C379.518 107.537 379.838 109.195 379.838 111.04H380.838H381.838C381.838 108.959 381.476 107.034 380.736 105.276L379.814 105.664ZM380.838 111.04H379.838C379.838 112.495 379.619 113.858 379.187 115.135L380.134 115.456L381.081 115.777C381.588 114.28 381.838 112.699 381.838 111.04H380.838ZM380.134 115.456L379.182 115.149C378.769 116.427 378.162 117.583 377.359 118.62L378.15 119.232L378.941 119.844C379.888 118.62 380.603 117.258 381.086 115.763L380.134 115.456ZM378.15 119.232L377.352 118.63C376.572 119.663 375.59 120.58 374.395 121.376L374.95 122.208L375.505 123.04C376.87 122.13 378.022 121.062 378.948 119.834L378.15 119.232ZM374.95 122.208L374.389 121.38C373.223 122.171 371.876 122.802 370.34 123.267L370.63 124.224L370.92 125.181C372.627 124.665 374.16 123.952 375.511 123.036L374.95 122.208ZM370.63 124.224L370.13 125.09C370.615 125.37 371.063 125.706 371.476 126.099L372.166 125.376L372.856 124.653C372.33 124.15 371.754 123.718 371.13 123.358L370.63 124.224ZM372.166 125.376L371.493 126.116C371.891 126.477 372.263 126.92 372.605 127.453L373.446 126.912L374.287 126.371C373.861 125.709 373.38 125.128 372.839 124.636L372.166 125.376ZM373.446 126.912L372.618 127.473L384.202 144.561L385.03 144L385.858 143.439L374.274 126.351L373.446 126.912ZM428.238 97.728L429.165 98.1025L429.72 96.728H428.238V97.728ZM409.55 144V145H410.224L410.477 144.374L409.55 144ZM401.774 144L400.846 144.374L401.099 145H401.774V144ZM383.085 97.728V96.728H381.603L382.158 98.1025L383.085 97.728ZM391.822 98.272L391.21 99.0633L391.21 99.0633L391.822 98.272ZM392.878 99.68L393.81 99.3194L393.807 99.311L393.804 99.3027L392.878 99.68ZM403.79 127.904L402.857 128.265L402.86 128.272L403.79 127.904ZM404.814 130.944L403.853 131.221L403.856 131.232L403.859 131.243L404.814 130.944ZM405.774 134.368L404.803 134.611L406.751 134.578L405.774 134.368ZM406.606 130.944L407.57 131.209L407.571 131.204L406.606 130.944ZM407.598 127.904L408.528 128.272L408.531 128.263L407.598 127.904ZM418.446 99.68L419.379 100.039L419.385 100.024L419.39 100.009L418.446 99.68ZM419.438 98.336L418.817 97.552L418.809 97.5584L418.801 97.565L419.438 98.336ZM428.238 97.728L427.31 97.3535L408.622 143.626L409.55 144L410.477 144.374L429.165 98.1025L428.238 97.728ZM409.55 144V143H401.774V144V145H409.55V144ZM401.774 144L402.701 143.626L384.013 97.3535L383.085 97.728L382.158 98.1025L400.846 144.374L401.774 144ZM383.085 97.728V98.728H389.998V97.728V96.728H383.085V97.728ZM389.998 97.728V98.728C390.581 98.728 390.957 98.8677 391.21 99.0633L391.822 98.272L392.433 97.4807C391.747 96.951 390.907 96.728 389.998 96.728V97.728ZM391.822 98.272L391.21 99.0633C391.533 99.3128 391.78 99.6364 391.951 100.057L392.878 99.68L393.804 99.3027C393.506 98.5716 393.049 97.9565 392.433 97.4807L391.822 98.272ZM392.878 99.68L391.945 100.041L402.857 128.265L403.79 127.904L404.722 127.543L393.81 99.3194L392.878 99.68ZM403.79 127.904L402.86 128.272C403.209 129.155 403.54 130.137 403.853 131.221L404.814 130.944L405.774 130.667C405.447 129.532 405.096 128.488 404.719 127.536L403.79 127.904ZM404.814 130.944L403.859 131.243C404.194 132.311 404.509 133.433 404.803 134.611L405.774 134.368L406.744 134.125C406.441 132.913 406.115 131.753 405.768 130.645L404.814 130.944ZM405.774 134.368L406.751 134.578C407.004 133.4 407.277 132.277 407.57 131.209L406.606 130.944L405.641 130.679C405.337 131.787 405.055 132.947 404.796 134.158L405.774 134.368ZM406.606 130.944L407.571 131.204C407.862 130.125 408.181 129.149 408.527 128.272L407.598 127.904L406.668 127.536C406.289 128.494 405.947 129.544 405.64 130.684L406.606 130.944ZM407.598 127.904L408.531 128.263L419.379 100.039L418.446 99.68L417.512 99.3212L406.664 127.545L407.598 127.904ZM418.446 99.68L419.39 100.009C419.488 99.7258 419.693 99.4219 420.074 99.107L419.438 98.336L418.801 97.565C418.201 98.0607 417.744 98.6528 417.501 99.3515L418.446 99.68ZM419.438 98.336L420.058 99.12C420.374 98.8701 420.767 98.728 421.294 98.728V97.728V96.728C420.369 96.728 419.525 96.9912 418.817 97.552L419.438 98.336ZM421.294 97.728V98.728H428.238V97.728V96.728H421.294V97.728ZM453.788 126.528V127.528H455.218L454.727 126.184L453.788 126.528ZM448.156 111.136L449.095 110.792L449.089 110.776L449.082 110.76L448.156 111.136ZM447.292 108.704L448.244 108.401L448.244 108.401L447.292 108.704ZM446.396 105.664L447.36 105.399L446.36 101.756L445.426 105.417L446.396 105.664ZM445.532 108.736L446.484 109.039L446.486 109.033L445.532 108.736ZM444.668 111.2L443.737 110.833L443.733 110.845L443.728 110.857L444.668 111.2ZM439.068 126.528L438.128 126.185L437.638 127.528H439.068V126.528ZM468.988 144V145H470.455L469.918 143.634L468.988 144ZM460.508 143.456L459.874 144.23L459.885 144.239L459.896 144.247L460.508 143.456ZM459.451 142.048L458.512 142.392L458.521 142.415L458.531 142.438L459.451 142.048ZM455.996 132.608L456.935 132.264L456.694 131.608H455.996V132.608ZM436.828 132.608V131.608H436.129L435.888 132.264L436.828 132.608ZM433.372 142.048L432.432 141.704L432.43 141.712L432.427 141.719L433.372 142.048ZM432.38 143.392L431.743 142.621L432.38 143.392ZM423.835 144L422.905 143.634L422.367 145H423.835V144ZM442.044 97.728V96.728H441.362L441.113 97.3618L442.044 97.728ZM450.812 97.728L451.742 97.3624L451.493 96.728H450.812V97.728ZM453.788 126.528L454.727 126.184L449.095 110.792L448.156 111.136L447.216 111.48L452.848 126.872L453.788 126.528ZM448.156 111.136L449.082 110.76C448.817 110.107 448.538 109.322 448.244 108.401L447.292 108.704L446.339 109.007C446.643 109.963 446.939 110.799 447.229 111.512L448.156 111.136ZM447.292 108.704L448.244 108.401C447.95 107.477 447.655 106.476 447.36 105.399L446.396 105.664L445.431 105.929C445.733 107.028 446.035 108.054 446.339 109.007L447.292 108.704ZM446.396 105.664L445.426 105.417C445.153 106.49 444.87 107.497 444.577 108.439L445.532 108.736L446.486 109.033C446.791 108.055 447.083 107.014 447.365 105.911L446.396 105.664ZM445.532 108.736L444.579 108.433C444.285 109.356 444.004 110.155 443.737 110.833L444.668 111.2L445.598 111.567C445.885 110.837 446.181 109.993 446.484 109.039L445.532 108.736ZM444.668 111.2L443.728 110.857L438.128 126.185L439.068 126.528L440.007 126.871L445.607 111.543L444.668 111.2ZM439.068 126.528V127.528H453.788V126.528V125.528H439.068V126.528ZM468.988 144V143H462.332V144V145H468.988V144ZM462.332 144V143C461.748 143 461.372 142.86 461.119 142.665L460.508 143.456L459.896 144.247C460.582 144.777 461.422 145 462.332 145V144ZM460.508 143.456L461.141 142.682C460.796 142.4 460.543 142.062 460.372 141.658L459.451 142.048L458.531 142.438C458.829 143.143 459.28 143.744 459.874 144.23L460.508 143.456ZM459.451 142.048L460.391 141.704L456.935 132.264L455.996 132.608L455.056 132.952L458.512 142.392L459.451 142.048ZM455.996 132.608V131.608H436.828V132.608V133.608H455.996V132.608ZM436.828 132.608L435.888 132.264L432.432 141.704L433.372 142.048L434.311 142.392L437.767 132.952L436.828 132.608ZM433.372 142.048L432.427 141.719C432.329 142.002 432.124 142.306 431.743 142.621L432.38 143.392L433.016 144.163C433.616 143.667 434.073 143.075 434.316 142.377L433.372 142.048ZM432.38 143.392L431.743 142.621C431.456 142.858 431.083 143 430.556 143V144V145C431.479 145 432.322 144.737 433.016 144.163L432.38 143.392ZM430.556 144V143H423.835V144V145H430.556V144ZM423.835 144L424.766 144.366L442.974 98.0942L442.044 97.728L441.113 97.3618L422.905 143.634L423.835 144ZM442.044 97.728V98.728H450.812V97.728V96.728H442.044V97.728ZM450.812 97.728L449.881 98.0936L468.057 144.366L468.988 144L469.918 143.634L451.742 97.3624L450.812 97.728Z" fill="#A68B71" mask="url(#path-4-outside-1_89_22)"/>
<mask id="path-6-outside-2_89_22" maskUnits="userSpaceOnUse" x="293" y="159" width="120" height="37" fill="black">
<rect fill="white" x="293" y="159" width="120" height="37"/>
<path d="M304.832 190.536C305.728 190.536 306.544 190.424 307.28 190.2C308.016 189.976 308.648 189.664 309.176 189.264C309.704 188.864 310.112 188.392 310.4 187.848C310.688 187.304 310.832 186.72 310.832 186.096C310.832 185.872 310.816 185.656 310.784 185.448C310.768 185.224 310.744 185.016 310.712 184.824C308.824 184.504 307.208 184.368 305.864 184.416C304.52 184.464 303.424 184.632 302.576 184.92C301.728 185.208 301.104 185.592 300.704 186.072C300.304 186.552 300.104 187.064 300.104 187.608C300.104 188.568 300.488 189.296 301.256 189.792C302.04 190.288 303.232 190.536 304.832 190.536ZM306.968 174.456C307.688 174.456 308.32 174.288 308.864 173.952C309.408 173.616 309.864 173.176 310.232 172.632C310.616 172.088 310.904 171.48 311.096 170.808C311.288 170.12 311.392 169.424 311.408 168.72C311.408 167.52 311.12 166.6 310.544 165.96C309.984 165.32 309.168 165 308.096 165C307.376 165 306.744 165.16 306.2 165.48C305.656 165.784 305.2 166.2 304.832 166.728C304.464 167.24 304.184 167.832 303.992 168.504C303.816 169.176 303.728 169.872 303.728 170.592C303.728 171.824 304.008 172.776 304.568 173.448C305.128 174.12 305.928 174.456 306.968 174.456ZM320.528 162.264L320.264 164.184C320.152 164.952 319.76 165.464 319.088 165.72L316.568 166.368C316.648 166.688 316.704 167.032 316.736 167.4C316.784 167.752 316.808 168.12 316.808 168.504C316.808 169.24 316.728 169.904 316.568 170.496C316.408 171.072 316.208 171.608 315.968 172.104C315.744 172.6 315.496 173.072 315.224 173.52C314.952 173.952 314.696 174.4 314.456 174.864C314.232 175.312 314.04 175.792 313.88 176.304C313.72 176.8 313.64 177.352 313.64 177.96C313.64 178.616 313.776 179.224 314.048 179.784C314.32 180.328 314.616 180.888 314.936 181.464C315.256 182.04 315.552 182.656 315.824 183.312C316.096 183.968 316.232 184.728 316.232 185.592C316.216 186.808 315.936 187.96 315.392 189.048C314.848 190.152 314.064 191.112 313.04 191.928C312.032 192.76 310.792 193.416 309.32 193.896C307.848 194.376 306.184 194.616 304.328 194.616C302.824 194.616 301.464 194.456 300.248 194.136C299.032 193.832 298 193.4 297.152 192.84C296.304 192.28 295.648 191.616 295.184 190.848C294.72 190.096 294.488 189.264 294.488 188.352C294.488 187.232 294.728 186.256 295.208 185.424C295.688 184.592 296.328 183.896 297.128 183.336C297.928 182.76 298.848 182.304 299.888 181.968C300.928 181.632 302.008 181.392 303.128 181.248C304.248 181.104 305.368 181.048 306.488 181.08C307.608 181.112 308.648 181.208 309.608 181.368C309.464 180.888 309.392 180.368 309.392 179.808C309.392 178.88 309.648 177.856 310.16 176.736C309.552 177.152 308.856 177.472 308.072 177.696C307.304 177.92 306.376 178.032 305.288 178.032C304.36 178.032 303.472 177.88 302.624 177.576C301.792 177.272 301.056 176.808 300.416 176.184C299.776 175.56 299.264 174.784 298.88 173.856C298.512 172.912 298.328 171.816 298.328 170.568C298.328 169.368 298.552 168.2 299 167.064C299.448 165.912 300.112 164.888 300.992 163.992C301.872 163.08 302.96 162.352 304.256 161.808C305.552 161.264 307.056 160.992 308.768 160.992C309.68 160.992 310.544 161.096 311.36 161.304C312.192 161.512 312.952 161.832 313.64 162.264H320.528ZM328.901 167.28C329.525 166.064 330.189 165.024 330.893 164.16C331.613 163.28 332.357 162.6 333.125 162.12C333.893 161.624 334.685 161.336 335.501 161.256C336.317 161.16 337.133 161.288 337.949 161.64L336.869 167.304C334.917 166.488 333.205 166.688 331.733 167.904C330.277 169.12 329.109 171.512 328.229 175.08L326.909 186H321.101L324.077 161.352H327.101C327.725 161.352 328.205 161.504 328.541 161.808C328.893 162.112 329.069 162.6 329.069 163.272L328.901 167.28ZM347.635 181.8C348.627 181.8 349.523 181.52 350.323 180.96C351.123 180.384 351.803 179.624 352.363 178.68C352.923 177.72 353.355 176.608 353.659 175.344C353.963 174.08 354.115 172.752 354.115 171.36C354.115 169.36 353.779 167.896 353.107 166.968C352.435 166.024 351.411 165.552 350.035 165.552C349.043 165.552 348.139 165.832 347.323 166.392C346.523 166.952 345.843 167.712 345.283 168.672C344.723 169.616 344.291 170.72 343.987 171.984C343.683 173.248 343.531 174.584 343.531 175.992C343.531 177.992 343.867 179.464 344.539 180.408C345.211 181.336 346.243 181.8 347.635 181.8ZM347.083 186.36C345.723 186.36 344.467 186.136 343.315 185.688C342.163 185.224 341.163 184.552 340.315 183.672C339.467 182.792 338.803 181.712 338.323 180.432C337.843 179.152 337.603 177.688 337.603 176.04C337.603 173.912 337.947 171.928 338.635 170.088C339.323 168.248 340.251 166.656 341.419 165.312C342.603 163.968 343.979 162.912 345.547 162.144C347.115 161.376 348.787 160.992 350.563 160.992C351.923 160.992 353.179 161.224 354.331 161.688C355.499 162.136 356.499 162.8 357.331 163.68C358.179 164.56 358.843 165.64 359.323 166.92C359.803 168.2 360.043 169.664 360.043 171.312C360.043 173.424 359.699 175.4 359.011 177.24C358.323 179.064 357.387 180.656 356.203 182.016C355.035 183.36 353.667 184.424 352.099 185.208C350.531 185.976 348.859 186.36 347.083 186.36ZM386.08 161.376L383.104 186H380.104C378.696 186 377.992 185.32 377.992 183.96L378.136 181.128C376.888 182.888 375.52 184.2 374.032 185.064C372.56 185.928 371.032 186.36 369.448 186.36C368.424 186.36 367.504 186.152 366.688 185.736C365.872 185.32 365.2 184.72 364.672 183.936C364.144 183.136 363.768 182.152 363.544 180.984C363.336 179.816 363.328 178.488 363.52 177L365.368 161.376H371.296L369.448 177C369.24 178.616 369.32 179.776 369.688 180.48C370.056 181.168 370.728 181.512 371.704 181.512C372.344 181.512 372.992 181.336 373.648 180.984C374.32 180.632 374.968 180.128 375.592 179.472C376.216 178.816 376.792 178.032 377.32 177.12C377.848 176.192 378.288 175.16 378.64 174.024L380.152 161.376H386.08ZM395.081 180.24C395.625 180.832 396.249 181.248 396.953 181.488C397.657 181.728 398.345 181.848 399.017 181.848C400.073 181.848 401.033 181.52 401.897 180.864C402.761 180.208 403.505 179.352 404.129 178.296C404.753 177.24 405.233 176.056 405.569 174.744C405.905 173.416 406.073 172.088 406.073 170.76C406.073 169.032 405.785 167.752 405.209 166.92C404.649 166.072 403.865 165.648 402.857 165.648C402.201 165.648 401.537 165.872 400.865 166.32C400.193 166.768 399.545 167.384 398.921 168.168C398.297 168.936 397.713 169.848 397.169 170.904C396.641 171.96 396.185 173.096 395.801 174.312L395.081 180.24ZM396.401 166.8C397.585 165.024 398.921 163.616 400.409 162.576C401.913 161.52 403.505 160.992 405.185 160.992C406.209 160.992 407.137 161.184 407.969 161.568C408.801 161.936 409.513 162.496 410.105 163.248C410.697 164 411.153 164.952 411.473 166.104C411.793 167.256 411.953 168.608 411.953 170.16C411.953 171.552 411.809 172.92 411.521 174.264C411.233 175.608 410.825 176.88 410.297 178.08C409.769 179.28 409.137 180.384 408.401 181.392C407.681 182.4 406.873 183.272 405.977 184.008C405.081 184.744 404.121 185.32 403.097 185.736C402.089 186.152 401.041 186.36 399.953 186.36C398.833 186.36 397.825 186.16 396.929 185.76C396.049 185.36 395.273 184.816 394.601 184.128L393.377 194.04H387.617L391.601 161.352H394.601C395.225 161.352 395.705 161.504 396.041 161.808C396.393 162.112 396.569 162.6 396.569 163.272L396.401 166.8Z"/>
</mask>
<path d="M304.832 190.536C305.728 190.536 306.544 190.424 307.28 190.2C308.016 189.976 308.648 189.664 309.176 189.264C309.704 188.864 310.112 188.392 310.4 187.848C310.688 187.304 310.832 186.72 310.832 186.096C310.832 185.872 310.816 185.656 310.784 185.448C310.768 185.224 310.744 185.016 310.712 184.824C308.824 184.504 307.208 184.368 305.864 184.416C304.52 184.464 303.424 184.632 302.576 184.92C301.728 185.208 301.104 185.592 300.704 186.072C300.304 186.552 300.104 187.064 300.104 187.608C300.104 188.568 300.488 189.296 301.256 189.792C302.04 190.288 303.232 190.536 304.832 190.536ZM306.968 174.456C307.688 174.456 308.32 174.288 308.864 173.952C309.408 173.616 309.864 173.176 310.232 172.632C310.616 172.088 310.904 171.48 311.096 170.808C311.288 170.12 311.392 169.424 311.408 168.72C311.408 167.52 311.12 166.6 310.544 165.96C309.984 165.32 309.168 165 308.096 165C307.376 165 306.744 165.16 306.2 165.48C305.656 165.784 305.2 166.2 304.832 166.728C304.464 167.24 304.184 167.832 303.992 168.504C303.816 169.176 303.728 169.872 303.728 170.592C303.728 171.824 304.008 172.776 304.568 173.448C305.128 174.12 305.928 174.456 306.968 174.456ZM320.528 162.264L320.264 164.184C320.152 164.952 319.76 165.464 319.088 165.72L316.568 166.368C316.648 166.688 316.704 167.032 316.736 167.4C316.784 167.752 316.808 168.12 316.808 168.504C316.808 169.24 316.728 169.904 316.568 170.496C316.408 171.072 316.208 171.608 315.968 172.104C315.744 172.6 315.496 173.072 315.224 173.52C314.952 173.952 314.696 174.4 314.456 174.864C314.232 175.312 314.04 175.792 313.88 176.304C313.72 176.8 313.64 177.352 313.64 177.96C313.64 178.616 313.776 179.224 314.048 179.784C314.32 180.328 314.616 180.888 314.936 181.464C315.256 182.04 315.552 182.656 315.824 183.312C316.096 183.968 316.232 184.728 316.232 185.592C316.216 186.808 315.936 187.96 315.392 189.048C314.848 190.152 314.064 191.112 313.04 191.928C312.032 192.76 310.792 193.416 309.32 193.896C307.848 194.376 306.184 194.616 304.328 194.616C302.824 194.616 301.464 194.456 300.248 194.136C299.032 193.832 298 193.4 297.152 192.84C296.304 192.28 295.648 191.616 295.184 190.848C294.72 190.096 294.488 189.264 294.488 188.352C294.488 187.232 294.728 186.256 295.208 185.424C295.688 184.592 296.328 183.896 297.128 183.336C297.928 182.76 298.848 182.304 299.888 181.968C300.928 181.632 302.008 181.392 303.128 181.248C304.248 181.104 305.368 181.048 306.488 181.08C307.608 181.112 308.648 181.208 309.608 181.368C309.464 180.888 309.392 180.368 309.392 179.808C309.392 178.88 309.648 177.856 310.16 176.736C309.552 177.152 308.856 177.472 308.072 177.696C307.304 177.92 306.376 178.032 305.288 178.032C304.36 178.032 303.472 177.88 302.624 177.576C301.792 177.272 301.056 176.808 300.416 176.184C299.776 175.56 299.264 174.784 298.88 173.856C298.512 172.912 298.328 171.816 298.328 170.568C298.328 169.368 298.552 168.2 299 167.064C299.448 165.912 300.112 164.888 300.992 163.992C301.872 163.08 302.96 162.352 304.256 161.808C305.552 161.264 307.056 160.992 308.768 160.992C309.68 160.992 310.544 161.096 311.36 161.304C312.192 161.512 312.952 161.832 313.64 162.264H320.528ZM328.901 167.28C329.525 166.064 330.189 165.024 330.893 164.16C331.613 163.28 332.357 162.6 333.125 162.12C333.893 161.624 334.685 161.336 335.501 161.256C336.317 161.16 337.133 161.288 337.949 161.64L336.869 167.304C334.917 166.488 333.205 166.688 331.733 167.904C330.277 169.12 329.109 171.512 328.229 175.08L326.909 186H321.101L324.077 161.352H327.101C327.725 161.352 328.205 161.504 328.541 161.808C328.893 162.112 329.069 162.6 329.069 163.272L328.901 167.28ZM347.635 181.8C348.627 181.8 349.523 181.52 350.323 180.96C351.123 180.384 351.803 179.624 352.363 178.68C352.923 177.72 353.355 176.608 353.659 175.344C353.963 174.08 354.115 172.752 354.115 171.36C354.115 169.36 353.779 167.896 353.107 166.968C352.435 166.024 351.411 165.552 350.035 165.552C349.043 165.552 348.139 165.832 347.323 166.392C346.523 166.952 345.843 167.712 345.283 168.672C344.723 169.616 344.291 170.72 343.987 171.984C343.683 173.248 343.531 174.584 343.531 175.992C343.531 177.992 343.867 179.464 344.539 180.408C345.211 181.336 346.243 181.8 347.635 181.8ZM347.083 186.36C345.723 186.36 344.467 186.136 343.315 185.688C342.163 185.224 341.163 184.552 340.315 183.672C339.467 182.792 338.803 181.712 338.323 180.432C337.843 179.152 337.603 177.688 337.603 176.04C337.603 173.912 337.947 171.928 338.635 170.088C339.323 168.248 340.251 166.656 341.419 165.312C342.603 163.968 343.979 162.912 345.547 162.144C347.115 161.376 348.787 160.992 350.563 160.992C351.923 160.992 353.179 161.224 354.331 161.688C355.499 162.136 356.499 162.8 357.331 163.68C358.179 164.56 358.843 165.64 359.323 166.92C359.803 168.2 360.043 169.664 360.043 171.312C360.043 173.424 359.699 175.4 359.011 177.24C358.323 179.064 357.387 180.656 356.203 182.016C355.035 183.36 353.667 184.424 352.099 185.208C350.531 185.976 348.859 186.36 347.083 186.36ZM386.08 161.376L383.104 186H380.104C378.696 186 377.992 185.32 377.992 183.96L378.136 181.128C376.888 182.888 375.52 184.2 374.032 185.064C372.56 185.928 371.032 186.36 369.448 186.36C368.424 186.36 367.504 186.152 366.688 185.736C365.872 185.32 365.2 184.72 364.672 183.936C364.144 183.136 363.768 182.152 363.544 180.984C363.336 179.816 363.328 178.488 363.52 177L365.368 161.376H371.296L369.448 177C369.24 178.616 369.32 179.776 369.688 180.48C370.056 181.168 370.728 181.512 371.704 181.512C372.344 181.512 372.992 181.336 373.648 180.984C374.32 180.632 374.968 180.128 375.592 179.472C376.216 178.816 376.792 178.032 377.32 177.12C377.848 176.192 378.288 175.16 378.64 174.024L380.152 161.376H386.08ZM395.081 180.24C395.625 180.832 396.249 181.248 396.953 181.488C397.657 181.728 398.345 181.848 399.017 181.848C400.073 181.848 401.033 181.52 401.897 180.864C402.761 180.208 403.505 179.352 404.129 178.296C404.753 177.24 405.233 176.056 405.569 174.744C405.905 173.416 406.073 172.088 406.073 170.76C406.073 169.032 405.785 167.752 405.209 166.92C404.649 166.072 403.865 165.648 402.857 165.648C402.201 165.648 401.537 165.872 400.865 166.32C400.193 166.768 399.545 167.384 398.921 168.168C398.297 168.936 397.713 169.848 397.169 170.904C396.641 171.96 396.185 173.096 395.801 174.312L395.081 180.24ZM396.401 166.8C397.585 165.024 398.921 163.616 400.409 162.576C401.913 161.52 403.505 160.992 405.185 160.992C406.209 160.992 407.137 161.184 407.969 161.568C408.801 161.936 409.513 162.496 410.105 163.248C410.697 164 411.153 164.952 411.473 166.104C411.793 167.256 411.953 168.608 411.953 170.16C411.953 171.552 411.809 172.92 411.521 174.264C411.233 175.608 410.825 176.88 410.297 178.08C409.769 179.28 409.137 180.384 408.401 181.392C407.681 182.4 406.873 183.272 405.977 184.008C405.081 184.744 404.121 185.32 403.097 185.736C402.089 186.152 401.041 186.36 399.953 186.36C398.833 186.36 397.825 186.16 396.929 185.76C396.049 185.36 395.273 184.816 394.601 184.128L393.377 194.04H387.617L391.601 161.352H394.601C395.225 161.352 395.705 161.504 396.041 161.808C396.393 162.112 396.569 162.6 396.569 163.272L396.401 166.8Z" fill="#4EC8EC"/>
<path d="M309.176 189.264L308.572 188.467L308.572 188.467L309.176 189.264ZM310.4 187.848L311.284 188.316L311.284 188.316L310.4 187.848ZM310.784 185.448L309.787 185.519L309.789 185.56L309.796 185.6L310.784 185.448ZM310.712 184.824L311.698 184.66L311.581 183.957L310.879 183.838L310.712 184.824ZM305.864 184.416L305.9 185.415L305.9 185.415L305.864 184.416ZM302.576 184.92L302.254 183.973L302.254 183.973L302.576 184.92ZM300.704 186.072L301.472 186.712L300.704 186.072ZM301.256 189.792L300.713 190.632L300.721 190.637L301.256 189.792ZM308.864 173.952L308.339 173.101L308.339 173.101L308.864 173.952ZM310.232 172.632L309.415 172.055L309.409 172.063L309.404 172.072L310.232 172.632ZM311.096 170.808L312.058 171.083L312.059 171.077L311.096 170.808ZM311.408 168.72L312.408 168.743L312.408 168.731V168.72H311.408ZM310.544 165.96L309.791 166.619L309.801 166.629L310.544 165.96ZM306.2 165.48L306.688 166.353L306.697 166.348L306.707 166.342L306.2 165.48ZM304.832 166.728L305.644 167.312L305.648 167.306L305.652 167.3L304.832 166.728ZM303.992 168.504L303.03 168.229L303.027 168.24L303.025 168.251L303.992 168.504ZM304.568 173.448L303.8 174.088L303.8 174.088L304.568 173.448ZM320.528 162.264L321.519 162.4L321.675 161.264H320.528V162.264ZM320.264 164.184L321.254 164.328L321.255 164.32L320.264 164.184ZM319.088 165.72L319.337 166.688L319.391 166.674L319.444 166.654L319.088 165.72ZM316.568 166.368L316.319 165.4L315.357 165.647L315.598 166.611L316.568 166.368ZM316.736 167.4L315.74 167.487L315.742 167.511L315.745 167.535L316.736 167.4ZM316.568 170.496L317.532 170.764L317.533 170.757L316.568 170.496ZM315.968 172.104L315.068 171.668L315.062 171.68L315.057 171.692L315.968 172.104ZM315.224 173.52L316.07 174.053L316.075 174.046L316.079 174.039L315.224 173.52ZM314.456 174.864L313.568 174.405L313.562 174.417L314.456 174.864ZM313.88 176.304L314.832 176.611L314.834 176.602L313.88 176.304ZM314.048 179.784L313.148 180.221L313.154 180.231L314.048 179.784ZM315.824 183.312L314.9 183.695L314.9 183.695L315.824 183.312ZM316.232 185.592L317.232 185.605V185.592H316.232ZM315.392 189.048L314.498 188.601L314.495 188.606L315.392 189.048ZM313.04 191.928L312.417 191.146L312.41 191.151L312.403 191.157L313.04 191.928ZM309.32 193.896L309.01 192.945L309.01 192.945L309.32 193.896ZM300.248 194.136L300.503 193.169L300.491 193.166L300.248 194.136ZM297.152 192.84L296.601 193.674L296.601 193.674L297.152 192.84ZM295.184 190.848L296.04 190.331L296.035 190.323L295.184 190.848ZM295.208 185.424L296.074 185.924L296.074 185.924L295.208 185.424ZM297.128 183.336L297.702 184.155L297.712 184.148L297.128 183.336ZM299.888 181.968L299.581 181.016L299.581 181.016L299.888 181.968ZM303.128 181.248L303.256 182.24L303.256 182.24L303.128 181.248ZM306.488 181.08L306.459 182.08L306.488 181.08ZM309.608 181.368L309.444 182.354L311.027 182.618L310.566 181.081L309.608 181.368ZM310.16 176.736L311.069 177.152L312.566 173.878L309.595 175.911L310.16 176.736ZM308.072 177.696L307.797 176.734L307.792 176.736L308.072 177.696ZM302.624 177.576L302.281 178.515L302.287 178.517L302.624 177.576ZM300.416 176.184L301.114 175.468L301.114 175.468L300.416 176.184ZM298.88 173.856L297.948 174.219L297.952 174.229L297.956 174.238L298.88 173.856ZM299 167.064L299.93 167.431L299.932 167.426L299 167.064ZM300.992 163.992L301.705 164.693L301.712 164.686L300.992 163.992ZM304.256 161.808L304.643 162.73L304.643 162.73L304.256 161.808ZM311.36 161.304L311.113 162.273L311.117 162.274L311.36 161.304ZM313.64 162.264L313.108 163.111L313.352 163.264H313.64V162.264ZM304.832 190.536V191.536C305.811 191.536 306.727 191.414 307.571 191.157L307.28 190.2L306.989 189.243C306.361 189.434 305.645 189.536 304.832 189.536V190.536ZM307.28 190.2L307.571 191.157C308.402 190.904 309.144 190.543 309.78 190.061L309.176 189.264L308.572 188.467C308.152 188.785 307.63 189.048 306.989 189.243L307.28 190.2ZM309.176 189.264L309.78 190.061C310.415 189.58 310.922 188.998 311.284 188.316L310.4 187.848L309.516 187.38C309.302 187.786 308.993 188.148 308.572 188.467L309.176 189.264ZM310.4 187.848L311.284 188.316C311.649 187.626 311.832 186.881 311.832 186.096H310.832H309.832C309.832 186.559 309.727 186.982 309.516 187.38L310.4 187.848ZM310.832 186.096H311.832C311.832 185.824 311.813 185.557 311.772 185.296L310.784 185.448L309.796 185.6C309.819 185.755 309.832 185.92 309.832 186.096H310.832ZM310.784 185.448L311.781 185.377C311.764 185.126 311.736 184.887 311.698 184.66L310.712 184.824L309.726 184.988C309.752 185.145 309.772 185.322 309.787 185.519L310.784 185.448ZM310.712 184.824L310.879 183.838C308.95 183.511 307.262 183.365 305.828 183.417L305.864 184.416L305.9 185.415C307.154 185.371 308.698 185.497 310.545 185.81L310.712 184.824ZM305.864 184.416L305.828 183.417C304.431 183.467 303.228 183.642 302.254 183.973L302.576 184.92L302.898 185.867C303.62 185.622 304.609 185.461 305.9 185.415L305.864 184.416ZM302.576 184.92L302.254 183.973C301.304 184.296 300.494 184.762 299.936 185.432L300.704 186.072L301.472 186.712C301.714 186.422 302.152 186.12 302.898 185.867L302.576 184.92ZM300.704 186.072L299.936 185.432C299.41 186.063 299.104 186.796 299.104 187.608H300.104H301.104C301.104 187.332 301.198 187.041 301.472 186.712L300.704 186.072ZM300.104 187.608H299.104C299.104 188.887 299.644 189.941 300.713 190.632L301.256 189.792L301.799 188.952C301.332 188.651 301.104 188.249 301.104 187.608H300.104ZM301.256 189.792L300.721 190.637C301.743 191.284 303.164 191.536 304.832 191.536V190.536V189.536C303.3 189.536 302.337 189.292 301.791 188.947L301.256 189.792ZM306.968 174.456V175.456C307.85 175.456 308.668 175.248 309.389 174.803L308.864 173.952L308.339 173.101C307.972 173.328 307.526 173.456 306.968 173.456V174.456ZM308.864 173.952L309.389 174.803C310.057 174.39 310.615 173.85 311.06 173.192L310.232 172.632L309.404 172.072C309.113 172.502 308.759 172.842 308.339 173.101L308.864 173.952ZM310.232 172.632L311.049 173.209C311.501 172.568 311.836 171.857 312.058 171.083L311.096 170.808L310.134 170.533C309.972 171.103 309.731 171.608 309.415 172.055L310.232 172.632ZM311.096 170.808L312.059 171.077C312.273 170.31 312.39 169.531 312.408 168.743L311.408 168.72L310.408 168.697C310.394 169.317 310.303 169.93 310.133 170.539L311.096 170.808ZM311.408 168.72H312.408C312.408 167.37 312.084 166.176 311.287 165.291L310.544 165.96L309.801 166.629C310.156 167.024 310.408 167.67 310.408 168.72H311.408ZM310.544 165.96L311.297 165.301C310.499 164.39 309.375 164 308.096 164V165V166C308.961 166 309.469 166.25 309.791 166.619L310.544 165.96ZM308.096 165V164C307.223 164 306.411 164.196 305.693 164.618L306.2 165.48L306.707 166.342C307.077 166.124 307.529 166 308.096 166V165ZM306.2 165.48L305.712 164.607C305.032 164.987 304.463 165.508 304.012 166.156L304.832 166.728L305.652 167.3C305.937 166.892 306.28 166.581 306.688 166.353L306.2 165.48ZM304.832 166.728L304.02 166.144C303.578 166.76 303.251 167.458 303.03 168.229L303.992 168.504L304.954 168.779C305.117 168.206 305.35 167.72 305.644 167.312L304.832 166.728ZM303.992 168.504L303.025 168.251C302.826 169.008 302.728 169.79 302.728 170.592H303.728H304.728C304.728 169.954 304.806 169.344 304.959 168.757L303.992 168.504ZM303.728 170.592H302.728C302.728 171.964 303.039 173.175 303.8 174.088L304.568 173.448L305.336 172.808C304.977 172.377 304.728 171.684 304.728 170.592H303.728ZM304.568 173.448L303.8 174.088C304.586 175.032 305.693 175.456 306.968 175.456V174.456V173.456C306.163 173.456 305.67 173.208 305.336 172.808L304.568 173.448ZM320.528 162.264L319.537 162.128L319.273 164.048L320.264 164.184L321.255 164.32L321.519 162.4L320.528 162.264ZM320.264 164.184L319.274 164.04C319.21 164.484 319.033 164.671 318.732 164.786L319.088 165.72L319.444 166.654C320.487 166.257 321.094 165.42 321.254 164.328L320.264 164.184ZM319.088 165.72L318.839 164.752L316.319 165.4L316.568 166.368L316.817 167.336L319.337 166.688L319.088 165.72ZM316.568 166.368L315.598 166.611C315.664 166.874 315.712 167.165 315.74 167.487L316.736 167.4L317.732 167.313C317.696 166.899 317.632 166.502 317.538 166.125L316.568 166.368ZM316.736 167.4L315.745 167.535C315.787 167.839 315.808 168.162 315.808 168.504H316.808H317.808C317.808 168.078 317.781 167.665 317.727 167.265L316.736 167.4ZM316.808 168.504H315.808C315.808 169.169 315.736 169.743 315.603 170.235L316.568 170.496L317.533 170.757C317.72 170.065 317.808 169.311 317.808 168.504H316.808ZM316.568 170.496L315.604 170.228C315.459 170.751 315.28 171.231 315.068 171.668L315.968 172.104L316.868 172.54C317.136 171.985 317.357 171.393 317.532 170.764L316.568 170.496ZM315.968 172.104L315.057 171.692C314.849 172.153 314.619 172.589 314.369 173.001L315.224 173.52L316.079 174.039C316.373 173.555 316.639 173.047 316.879 172.516L315.968 172.104ZM315.224 173.52L314.378 172.987C314.09 173.444 313.82 173.916 313.568 174.405L314.456 174.864L315.344 175.323C315.572 174.884 315.814 174.46 316.07 174.053L315.224 173.52ZM314.456 174.864L313.562 174.417C313.312 174.916 313.1 175.446 312.926 176.006L313.88 176.304L314.834 176.602C314.98 176.138 315.152 175.708 315.35 175.311L314.456 174.864ZM313.88 176.304L312.928 175.997C312.731 176.607 312.64 177.265 312.64 177.96H313.64H314.64C314.64 177.439 314.709 176.993 314.832 176.611L313.88 176.304ZM313.64 177.96H312.64C312.64 178.759 312.807 179.517 313.148 180.221L314.048 179.784L314.948 179.347C314.745 178.931 314.64 178.473 314.64 177.96H313.64ZM314.048 179.784L313.154 180.231C313.433 180.789 313.735 181.362 314.062 181.95L314.936 181.464L315.81 180.978C315.497 180.414 315.207 179.867 314.942 179.337L314.048 179.784ZM314.936 181.464L314.062 181.95C314.362 182.49 314.642 183.071 314.9 183.695L315.824 183.312L316.748 182.929C316.462 182.241 316.15 181.59 315.81 180.978L314.936 181.464ZM315.824 183.312L314.9 183.695C315.112 184.206 315.232 184.832 315.232 185.592H316.232H317.232C317.232 184.624 317.08 183.73 316.748 182.929L315.824 183.312ZM316.232 185.592L315.232 185.579C315.218 186.644 314.974 187.648 314.498 188.601L315.392 189.048L316.286 189.495C316.898 188.272 317.214 186.972 317.232 185.605L316.232 185.592ZM315.392 189.048L314.495 188.606C314.02 189.57 313.333 190.416 312.417 191.146L313.04 191.928L313.663 192.71C314.795 191.808 315.676 190.734 316.289 189.49L315.392 189.048ZM313.04 191.928L312.403 191.157C311.508 191.896 310.384 192.497 309.01 192.945L309.32 193.896L309.63 194.847C311.2 194.335 312.556 193.624 313.677 192.699L313.04 191.928ZM309.32 193.896L309.01 192.945C307.656 193.387 306.099 193.616 304.328 193.616V194.616V195.616C306.269 195.616 308.04 195.365 309.63 194.847L309.32 193.896ZM304.328 194.616V193.616C302.894 193.616 301.621 193.463 300.502 193.169L300.248 194.136L299.994 195.103C301.307 195.449 302.754 195.616 304.328 195.616V194.616ZM300.248 194.136L300.491 193.166C299.36 192.883 298.438 192.491 297.703 192.006L297.152 192.84L296.601 193.674C297.562 194.309 298.704 194.781 300.005 195.106L300.248 194.136ZM297.152 192.84L297.703 192.006C296.962 191.516 296.418 190.956 296.04 190.331L295.184 190.848L294.328 191.365C294.878 192.276 295.646 193.044 296.601 193.674L297.152 192.84ZM295.184 190.848L296.035 190.323C295.672 189.734 295.488 189.085 295.488 188.352H294.488H293.488C293.488 189.443 293.768 190.458 294.333 191.373L295.184 190.848ZM294.488 188.352H295.488C295.488 187.378 295.695 186.58 296.074 185.924L295.208 185.424L294.342 184.924C293.761 185.932 293.488 187.086 293.488 188.352H294.488ZM295.208 185.424L296.074 185.924C296.48 185.22 297.019 184.633 297.701 184.155L297.128 183.336L296.555 182.517C295.637 183.159 294.896 183.964 294.342 184.924L295.208 185.424ZM297.128 183.336L297.712 184.148C298.419 183.639 299.244 183.227 300.195 182.92L299.888 181.968L299.581 181.016C298.452 181.381 297.437 181.881 296.544 182.524L297.128 183.336ZM299.888 181.968L300.195 182.92C301.175 182.603 302.195 182.376 303.256 182.24L303.128 181.248L303 180.256C301.821 180.408 300.681 180.661 299.581 181.016L299.888 181.968ZM303.128 181.248L303.256 182.24C304.324 182.102 305.392 182.049 306.459 182.08L306.488 181.08L306.517 180.08C305.344 180.047 304.172 180.106 303 180.256L303.128 181.248ZM306.488 181.08L306.459 182.08C307.541 182.11 308.535 182.203 309.444 182.354L309.608 181.368L309.772 180.382C308.761 180.213 307.675 180.114 306.517 180.08L306.488 181.08ZM309.608 181.368L310.566 181.081C310.453 180.704 310.392 180.282 310.392 179.808H309.392H308.392C308.392 180.454 308.475 181.072 308.65 181.655L309.608 181.368ZM309.392 179.808H310.392C310.392 179.062 310.599 178.182 311.069 177.152L310.16 176.736L309.251 176.32C308.697 177.53 308.392 178.698 308.392 179.808H309.392ZM310.16 176.736L309.595 175.911C309.085 176.26 308.489 176.537 307.797 176.734L308.072 177.696L308.347 178.658C309.223 178.407 310.019 178.044 310.725 177.561L310.16 176.736ZM308.072 177.696L307.792 176.736C307.141 176.926 306.313 177.032 305.288 177.032V178.032V179.032C306.439 179.032 307.467 178.914 308.352 178.656L308.072 177.696ZM305.288 178.032V177.032C304.472 177.032 303.698 176.899 302.961 176.635L302.624 177.576L302.287 178.517C303.246 178.861 304.248 179.032 305.288 179.032V178.032ZM302.624 177.576L302.967 176.637C302.269 176.382 301.654 175.994 301.114 175.468L300.416 176.184L299.718 176.9C300.458 177.622 301.315 178.162 302.281 178.515L302.624 177.576ZM300.416 176.184L301.114 175.468C300.583 174.95 300.143 174.292 299.804 173.474L298.88 173.856L297.956 174.238C298.385 175.276 298.969 176.17 299.718 176.9L300.416 176.184ZM298.88 173.856L299.812 173.493C299.498 172.688 299.328 171.72 299.328 170.568H298.328H297.328C297.328 171.912 297.526 173.136 297.948 174.219L298.88 173.856ZM298.328 170.568H299.328C299.328 169.496 299.528 168.452 299.93 167.431L299 167.064L298.07 166.697C297.576 167.948 297.328 169.24 297.328 170.568H298.328ZM299 167.064L299.932 167.426C300.33 166.403 300.919 165.494 301.705 164.693L300.992 163.992L300.279 163.291C299.305 164.282 298.566 165.421 298.068 166.702L299 167.064ZM300.992 163.992L301.712 164.686C302.488 163.882 303.459 163.227 304.643 162.73L304.256 161.808L303.869 160.886C302.461 161.477 301.256 162.278 300.272 163.298L300.992 163.992ZM304.256 161.808L304.643 162.73C305.793 162.247 307.161 161.992 308.768 161.992V160.992V159.992C306.951 159.992 305.311 160.281 303.869 160.886L304.256 161.808ZM308.768 160.992V161.992C309.604 161.992 310.384 162.087 311.113 162.273L311.36 161.304L311.607 160.335C310.704 160.105 309.756 159.992 308.768 159.992V160.992ZM311.36 161.304L311.117 162.274C311.853 162.458 312.514 162.738 313.108 163.111L313.64 162.264L314.172 161.417C313.39 160.926 312.531 160.566 311.603 160.334L311.36 161.304ZM313.64 162.264V163.264H320.528V162.264V161.264H313.64V162.264ZM328.901 167.28L327.902 167.238L329.79 167.737L328.901 167.28ZM330.893 164.16L330.119 163.527L330.117 163.528L330.893 164.16ZM333.125 162.12L333.655 162.968L333.661 162.964L333.667 162.96L333.125 162.12ZM335.501 161.256L335.598 162.251L335.608 162.25L335.617 162.249L335.501 161.256ZM337.949 161.64L338.931 161.827L339.081 161.039L338.345 160.722L337.949 161.64ZM336.869 167.304L336.483 168.227L337.62 168.702L337.851 167.491L336.869 167.304ZM331.733 167.904L331.096 167.133L331.092 167.136L331.733 167.904ZM328.229 175.08L327.258 174.841L327.243 174.9L327.236 174.96L328.229 175.08ZM326.909 186V187H327.795L327.901 186.12L326.909 186ZM321.101 186L320.108 185.88L319.973 187H321.101V186ZM324.077 161.352V160.352H323.19L323.084 161.232L324.077 161.352ZM328.541 161.808L327.87 162.55L327.878 162.557L327.887 162.565L328.541 161.808ZM329.069 163.272L330.068 163.314L330.069 163.293V163.272H329.069ZM328.901 167.28L329.79 167.737C330.389 166.569 331.017 165.591 331.668 164.792L330.893 164.16L330.117 163.528C329.361 164.457 328.66 165.559 328.011 166.823L328.901 167.28ZM330.893 164.16L331.667 164.793C332.334 163.977 332.999 163.378 333.655 162.968L333.125 162.12L332.595 161.272C331.714 161.822 330.891 162.583 330.119 163.527L330.893 164.16ZM333.125 162.12L333.667 162.96C334.317 162.54 334.958 162.314 335.598 162.251L335.501 161.256L335.403 160.261C334.411 160.358 333.468 160.708 332.582 161.28L333.125 162.12ZM335.501 161.256L335.617 162.249C336.245 162.175 336.884 162.27 337.553 162.558L337.949 161.64L338.345 160.722C337.381 160.306 336.389 160.145 335.384 160.263L335.501 161.256ZM337.949 161.64L336.966 161.453L335.886 167.117L336.869 167.304L337.851 167.491L338.931 161.827L337.949 161.64ZM336.869 167.304L337.254 166.381C336.156 165.922 335.066 165.725 334.005 165.849C332.937 165.973 331.964 166.416 331.096 167.133L331.733 167.904L332.37 168.675C332.974 168.176 333.592 167.911 334.237 167.835C334.887 167.759 335.63 167.87 336.483 168.227L336.869 167.304ZM331.733 167.904L331.092 167.136C329.378 168.568 328.148 171.23 327.258 174.841L328.229 175.08L329.2 175.319C330.069 171.794 331.175 169.672 332.374 168.672L331.733 167.904ZM328.229 175.08L327.236 174.96L325.916 185.88L326.909 186L327.901 186.12L329.221 175.2L328.229 175.08ZM326.909 186V185H321.101V186V187H326.909V186ZM321.101 186L322.093 186.12L325.069 161.472L324.077 161.352L323.084 161.232L320.108 185.88L321.101 186ZM324.077 161.352V162.352H327.101V161.352V160.352H324.077V161.352ZM327.101 161.352V162.352C327.571 162.352 327.777 162.466 327.87 162.55L328.541 161.808L329.212 161.066C328.632 160.542 327.878 160.352 327.101 160.352V161.352ZM328.541 161.808L327.887 162.565C327.935 162.607 328.069 162.758 328.069 163.272H329.069H330.069C330.069 162.442 329.85 161.617 329.194 161.051L328.541 161.808ZM329.069 163.272L328.07 163.23L327.902 167.238L328.901 167.28L329.9 167.322L330.068 163.314L329.069 163.272ZM350.323 180.96L350.896 181.779L350.907 181.772L350.323 180.96ZM352.363 178.68L353.223 179.19L353.227 179.184L352.363 178.68ZM353.659 175.344L354.631 175.578L354.631 175.578L353.659 175.344ZM353.107 166.968L352.292 167.548L352.297 167.555L353.107 166.968ZM347.323 166.392L346.757 165.567L346.749 165.573L347.323 166.392ZM345.283 168.672L346.143 169.182L346.147 169.176L345.283 168.672ZM343.987 171.984L343.015 171.75L343.015 171.75L343.987 171.984ZM344.539 180.408L343.724 180.988L343.729 180.995L344.539 180.408ZM343.315 185.688L342.941 186.616L342.952 186.62L343.315 185.688ZM340.315 183.672L339.595 184.366L339.595 184.366L340.315 183.672ZM338.323 180.432L337.387 180.783L337.387 180.783L338.323 180.432ZM338.635 170.088L337.698 169.738L337.698 169.738L338.635 170.088ZM341.419 165.312L340.668 164.651L340.664 164.656L341.419 165.312ZM345.547 162.144L345.987 163.042L345.987 163.042L345.547 162.144ZM354.331 161.688L353.957 162.616L353.965 162.619L353.973 162.622L354.331 161.688ZM357.331 163.68L356.604 164.367L356.611 164.374L357.331 163.68ZM359.323 166.92L360.259 166.569L360.259 166.569L359.323 166.92ZM359.011 177.24L359.947 177.593L359.948 177.59L359.011 177.24ZM356.203 182.016L355.449 181.359L355.448 181.36L356.203 182.016ZM352.099 185.208L352.539 186.106L352.546 186.102L352.099 185.208ZM347.635 181.8V182.8C348.829 182.8 349.925 182.459 350.896 181.779L350.323 180.96L349.749 180.141C349.12 180.581 348.425 180.8 347.635 180.8V181.8ZM350.323 180.96L350.907 181.772C351.831 181.106 352.601 180.239 353.223 179.19L352.363 178.68L351.503 178.17C351.005 179.009 350.415 179.662 349.739 180.148L350.323 180.96ZM352.363 178.68L353.227 179.184C353.843 178.127 354.308 176.921 354.631 175.578L353.659 175.344L352.687 175.11C352.402 176.295 352.002 177.313 351.499 178.176L352.363 178.68ZM353.659 175.344L354.631 175.578C354.955 174.232 355.115 172.825 355.115 171.36H354.115H353.115C353.115 172.679 352.971 173.928 352.687 175.11L353.659 175.344ZM354.115 171.36H355.115C355.115 169.289 354.775 167.566 353.917 166.381L353.107 166.968L352.297 167.555C352.783 168.226 353.115 169.431 353.115 171.36H354.115ZM353.107 166.968L353.922 166.388C353.025 165.129 351.665 164.552 350.035 164.552V165.552V166.552C351.156 166.552 351.845 166.919 352.292 167.548L353.107 166.968ZM350.035 165.552V164.552C348.841 164.552 347.74 164.893 346.757 165.567L347.323 166.392L347.889 167.217C348.538 166.771 349.244 166.552 350.035 166.552V165.552ZM347.323 166.392L346.749 165.573C345.816 166.226 345.042 167.101 344.419 168.168L345.283 168.672L346.147 169.176C346.644 168.323 347.23 167.678 347.896 167.211L347.323 166.392ZM345.283 168.672L344.423 168.162C343.803 169.206 343.338 170.406 343.015 171.75L343.987 171.984L344.959 172.218C345.244 171.034 345.642 170.026 346.143 169.182L345.283 168.672ZM343.987 171.984L343.015 171.75C342.691 173.097 342.531 174.512 342.531 175.992H343.531H344.531C344.531 174.656 344.675 173.399 344.959 172.218L343.987 171.984ZM343.531 175.992H342.531C342.531 178.065 342.872 179.791 343.724 180.988L344.539 180.408L345.354 179.828C344.862 179.137 344.531 177.919 344.531 175.992H343.531ZM344.539 180.408L343.729 180.995C344.63 182.239 346 182.8 347.635 182.8V181.8V180.8C346.486 180.8 345.791 180.433 345.349 179.821L344.539 180.408ZM347.083 186.36V185.36C345.834 185.36 344.703 185.155 343.677 184.756L343.315 185.688L342.952 186.62C344.231 187.117 345.611 187.36 347.083 187.36V186.36ZM343.315 185.688L343.688 184.76C342.665 184.348 341.784 183.755 341.035 182.978L340.315 183.672L339.595 184.366C340.542 185.349 341.661 186.1 342.941 186.616L343.315 185.688ZM340.315 183.672L341.035 182.978C340.292 182.207 339.697 181.248 339.259 180.081L338.323 180.432L337.387 180.783C337.909 182.176 338.641 183.377 339.595 184.366L340.315 183.672ZM338.323 180.432L339.259 180.081C338.829 178.934 338.603 177.592 338.603 176.04H337.603H336.603C336.603 177.784 336.857 179.37 337.387 180.783L338.323 180.432ZM337.603 176.04H338.603C338.603 174.022 338.929 172.157 339.572 170.438L338.635 170.088L337.698 169.738C336.965 171.699 336.603 173.802 336.603 176.04H337.603ZM338.635 170.088L339.572 170.438C340.222 168.699 341.092 167.213 342.174 165.968L341.419 165.312L340.664 164.656C339.41 166.099 338.424 167.797 337.698 169.738L338.635 170.088ZM341.419 165.312L342.169 165.973C343.269 164.725 344.54 163.751 345.987 163.042L345.547 162.144L345.107 161.246C343.418 162.073 341.937 163.211 340.669 164.651L341.419 165.312ZM345.547 162.144L345.987 163.042C347.415 162.342 348.937 161.992 350.563 161.992V160.992V159.992C348.637 159.992 346.814 160.41 345.107 161.246L345.547 162.144ZM350.563 160.992V161.992C351.807 161.992 352.935 162.204 353.957 162.616L354.331 161.688L354.704 160.76C353.423 160.244 352.039 159.992 350.563 159.992V160.992ZM354.331 161.688L353.973 162.622C355.006 163.018 355.878 163.599 356.604 164.367L357.331 163.68L358.058 162.993C357.119 162.001 355.992 161.254 354.689 160.754L354.331 161.688ZM357.331 163.68L356.611 164.374C357.353 165.145 357.949 166.104 358.387 167.271L359.323 166.92L360.259 166.569C359.737 165.176 359.004 163.975 358.051 162.986L357.331 163.68ZM359.323 166.92L358.387 167.271C358.817 168.418 359.043 169.76 359.043 171.312H360.043H361.043C361.043 169.568 360.789 167.982 360.259 166.569L359.323 166.92ZM360.043 171.312H359.043C359.043 173.313 358.717 175.17 358.074 176.89L359.011 177.24L359.948 177.59C360.68 175.63 361.043 173.535 361.043 171.312H360.043ZM359.011 177.24L358.075 176.887C357.426 178.609 356.548 180.096 355.449 181.359L356.203 182.016L356.957 182.673C358.225 181.216 359.22 179.519 359.947 177.593L359.011 177.24ZM356.203 182.016L355.448 181.36C354.365 182.607 353.101 183.589 351.652 184.314L352.099 185.208L352.546 186.102C354.233 185.259 355.705 184.113 356.958 182.672L356.203 182.016ZM352.099 185.208L351.659 184.31C350.23 185.01 348.709 185.36 347.083 185.36V186.36V187.36C349.009 187.36 350.831 186.942 352.539 186.106L352.099 185.208ZM386.08 161.376L387.073 161.496L387.208 160.376H386.08V161.376ZM383.104 186V187H383.99L384.097 186.12L383.104 186ZM377.992 183.96L376.993 183.909L376.992 183.935V183.96H377.992ZM378.136 181.128L379.135 181.179L379.309 177.744L377.32 180.55L378.136 181.128ZM374.032 185.064L373.53 184.199L373.526 184.202L374.032 185.064ZM366.688 185.736L366.234 186.627L366.234 186.627L366.688 185.736ZM364.672 183.936L363.837 184.487L363.842 184.495L364.672 183.936ZM363.544 180.984L362.559 181.159L362.562 181.172L363.544 180.984ZM363.52 177L364.512 177.128L364.513 177.117L363.52 177ZM365.368 161.376V160.376H364.479L364.375 161.259L365.368 161.376ZM371.296 161.376L372.289 161.493L372.421 160.376H371.296V161.376ZM369.448 177L370.44 177.128L370.441 177.117L369.448 177ZM369.688 180.48L368.802 180.943L368.806 180.952L369.688 180.48ZM373.648 180.984L373.184 180.098L373.175 180.103L373.648 180.984ZM375.592 179.472L376.316 180.161L376.316 180.161L375.592 179.472ZM377.32 177.12L378.185 177.621L378.189 177.615L377.32 177.12ZM378.64 174.024L379.595 174.32L379.622 174.233L379.633 174.143L378.64 174.024ZM380.152 161.376V160.376H379.264L379.159 161.257L380.152 161.376ZM386.08 161.376L385.087 161.256L382.111 185.88L383.104 186L384.097 186.12L387.073 161.496L386.08 161.376ZM383.104 186V185H380.104V186V187H383.104V186ZM380.104 186V185C379.546 185 379.312 184.865 379.215 184.771C379.124 184.683 378.992 184.477 378.992 183.96H377.992H376.992C376.992 184.803 377.212 185.617 377.825 186.209C378.432 186.795 379.254 187 380.104 187V186ZM377.992 183.96L378.991 184.011L379.135 181.179L378.136 181.128L377.137 181.077L376.993 183.909L377.992 183.96ZM378.136 181.128L377.32 180.55C376.135 182.222 374.867 183.423 373.53 184.199L374.032 185.064L374.534 185.929C376.173 184.977 377.641 183.554 378.952 181.706L378.136 181.128ZM374.032 185.064L373.526 184.202C372.195 184.983 370.84 185.36 369.448 185.36V186.36V187.36C371.224 187.36 372.925 186.873 374.538 185.926L374.032 185.064ZM369.448 186.36V185.36C368.563 185.36 367.802 185.181 367.142 184.845L366.688 185.736L366.234 186.627C367.206 187.123 368.285 187.36 369.448 187.36V186.36ZM366.688 185.736L367.142 184.845C366.482 184.509 365.938 184.025 365.501 183.377L364.672 183.936L363.842 184.495C364.462 185.415 365.261 186.131 366.234 186.627L366.688 185.736ZM364.672 183.936L365.506 183.385C365.066 182.718 364.731 181.864 364.526 180.796L363.544 180.984L362.562 181.172C362.805 182.44 363.222 183.554 363.837 184.487L364.672 183.936ZM363.544 180.984L364.528 180.809C364.342 179.763 364.329 178.54 364.512 177.128L363.52 177L362.528 176.872C362.326 178.436 362.33 179.869 362.559 181.159L363.544 180.984ZM363.52 177L364.513 177.117L366.361 161.493L365.368 161.376L364.375 161.259L362.527 176.883L363.52 177ZM365.368 161.376V162.376H371.296V161.376V160.376H365.368V161.376ZM371.296 161.376L370.303 161.259L368.455 176.883L369.448 177L370.441 177.117L372.289 161.493L371.296 161.376ZM369.448 177L368.456 176.872C368.244 178.516 368.281 179.947 368.802 180.943L369.688 180.48L370.574 180.017C370.359 179.605 370.235 178.716 370.44 177.128L369.448 177ZM369.688 180.48L368.806 180.952C369.394 182.051 370.468 182.512 371.704 182.512V181.512V180.512C370.987 180.512 370.718 180.285 370.57 180.008L369.688 180.48ZM371.704 181.512V182.512C372.534 182.512 373.343 182.282 374.121 181.865L373.648 180.984L373.175 180.103C372.641 180.39 372.154 180.512 371.704 180.512V181.512ZM373.648 180.984L374.112 181.87C374.898 181.458 375.631 180.882 376.316 180.161L375.592 179.472L374.867 178.783C374.305 179.374 373.742 179.806 373.184 180.098L373.648 180.984ZM375.592 179.472L376.316 180.161C377.003 179.44 377.624 178.59 378.185 177.621L377.32 177.12L376.454 176.619C375.96 177.474 375.429 178.192 374.867 178.783L375.592 179.472ZM377.32 177.12L378.189 177.615C378.757 176.617 379.224 175.517 379.595 174.32L378.64 174.024L377.685 173.728C377.352 174.803 376.939 175.767 376.451 176.625L377.32 177.12ZM378.64 174.024L379.633 174.143L381.145 161.495L380.152 161.376L379.159 161.257L377.647 173.905L378.64 174.024ZM380.152 161.376V162.376H386.08V161.376V160.376H380.152V161.376ZM395.081 180.24L394.088 180.119L394.032 180.577L394.344 180.917L395.081 180.24ZM401.897 180.864L402.501 181.66L402.501 181.66L401.897 180.864ZM404.129 178.296L404.99 178.805L404.99 178.805L404.129 178.296ZM405.569 174.744L406.537 174.992L406.538 174.989L405.569 174.744ZM405.209 166.92L404.374 167.471L404.38 167.48L404.386 167.489L405.209 166.92ZM400.865 166.32L400.31 165.488L400.31 165.488L400.865 166.32ZM398.921 168.168L399.697 168.799L399.703 168.791L398.921 168.168ZM397.169 170.904L396.28 170.446L396.274 170.457L397.169 170.904ZM395.801 174.312L394.847 174.011L394.819 174.099L394.808 174.191L395.801 174.312ZM396.401 166.8L395.402 166.752L395.23 170.359L397.233 167.355L396.401 166.8ZM400.409 162.576L400.981 163.396L400.983 163.394L400.409 162.576ZM407.969 161.568L407.55 162.476L407.557 162.479L407.564 162.483L407.969 161.568ZM410.105 163.248L410.89 162.629L410.89 162.629L410.105 163.248ZM411.473 166.104L412.436 165.836L412.436 165.836L411.473 166.104ZM411.521 174.264L412.498 174.474L412.498 174.474L411.521 174.264ZM410.297 178.08L411.212 178.483L411.212 178.483L410.297 178.08ZM408.401 181.392L407.593 180.802L407.587 180.811L408.401 181.392ZM405.977 184.008L406.611 184.781L406.611 184.781L405.977 184.008ZM403.097 185.736L402.72 184.81L402.715 184.812L403.097 185.736ZM396.929 185.76L396.515 186.67L396.521 186.673L396.929 185.76ZM394.601 184.128L395.316 183.429L393.863 181.942L393.608 184.005L394.601 184.128ZM393.377 194.04V195.04H394.261L394.369 194.163L393.377 194.04ZM387.617 194.04L386.624 193.919L386.487 195.04H387.617V194.04ZM391.601 161.352V160.352H390.715L390.608 161.231L391.601 161.352ZM396.041 161.808L395.37 162.55L395.378 162.557L395.387 162.565L396.041 161.808ZM396.569 163.272L397.567 163.32L397.569 163.296V163.272H396.569ZM395.081 180.24L394.344 180.917C394.992 181.622 395.755 182.136 396.63 182.435L396.953 181.488L397.275 180.541C396.742 180.36 396.257 180.042 395.817 179.563L395.081 180.24ZM396.953 181.488L396.63 182.435C397.427 182.706 398.224 182.848 399.017 182.848V181.848V180.848C398.465 180.848 397.886 180.75 397.275 180.541L396.953 181.488ZM399.017 181.848V182.848C400.297 182.848 401.469 182.445 402.501 181.66L401.897 180.864L401.292 180.068C400.597 180.595 399.848 180.848 399.017 180.848V181.848ZM401.897 180.864L402.501 181.66C403.481 180.916 404.308 179.958 404.99 178.805L404.129 178.296L403.268 177.787C402.701 178.746 402.04 179.5 401.292 180.068L401.897 180.864ZM404.129 178.296L404.99 178.805C405.666 177.659 406.18 176.386 406.537 174.992L405.569 174.744L404.6 174.496C404.285 175.726 403.839 176.821 403.268 177.787L404.129 178.296ZM405.569 174.744L406.538 174.989C406.894 173.584 407.073 172.173 407.073 170.76H406.073H405.073C405.073 172.003 404.916 173.248 404.599 174.499L405.569 174.744ZM406.073 170.76H407.073C407.073 168.957 406.779 167.431 406.031 166.351L405.209 166.92L404.386 167.489C404.79 168.073 405.073 169.107 405.073 170.76H406.073ZM405.209 166.92L406.043 166.369C405.3 165.243 404.204 164.648 402.857 164.648V165.648V166.648C403.525 166.648 403.997 166.901 404.374 167.471L405.209 166.92ZM402.857 165.648V164.648C401.962 164.648 401.108 164.956 400.31 165.488L400.865 166.32L401.419 167.152C401.965 166.788 402.439 166.648 402.857 166.648V165.648ZM400.865 166.32L400.31 165.488C399.534 166.005 398.812 166.699 398.138 167.545L398.921 168.168L399.703 168.791C400.277 168.069 400.851 167.531 401.419 167.152L400.865 166.32ZM398.921 168.168L398.145 167.537C397.469 168.368 396.849 169.341 396.28 170.446L397.169 170.904L398.058 171.362C398.576 170.355 399.124 169.504 399.697 168.799L398.921 168.168ZM397.169 170.904L396.274 170.457C395.721 171.563 395.246 172.749 394.847 174.011L395.801 174.312L396.754 174.613C397.124 173.443 397.56 172.357 398.063 171.351L397.169 170.904ZM395.801 174.312L394.808 174.191L394.088 180.119L395.081 180.24L396.073 180.361L396.793 174.433L395.801 174.312ZM396.401 166.8L397.233 167.355C398.359 165.665 399.612 164.353 400.981 163.396L400.409 162.576L399.836 161.756C398.229 162.879 396.81 164.383 395.569 166.245L396.401 166.8ZM400.409 162.576L400.983 163.394C402.336 162.445 403.73 161.992 405.185 161.992V160.992V159.992C403.28 159.992 401.49 160.595 399.834 161.758L400.409 162.576ZM405.185 160.992V161.992C406.081 161.992 406.864 162.159 407.55 162.476L407.969 161.568L408.388 160.66C407.41 160.209 406.336 159.992 405.185 159.992V160.992ZM407.969 161.568L407.564 162.483C408.239 162.781 408.822 163.236 409.319 163.867L410.105 163.248L410.89 162.629C410.203 161.756 409.362 161.091 408.373 160.653L407.969 161.568ZM410.105 163.248L409.319 163.867C409.811 164.492 410.216 165.316 410.509 166.372L411.473 166.104L412.436 165.836C412.089 164.588 411.582 163.508 410.89 162.629L410.105 163.248ZM411.473 166.104L410.509 166.372C410.799 167.415 410.953 168.673 410.953 170.16H411.953H412.953C412.953 168.543 412.786 167.097 412.436 165.836L411.473 166.104ZM411.953 170.16H410.953C410.953 171.482 410.816 172.78 410.543 174.054L411.521 174.264L412.498 174.474C412.801 173.06 412.953 171.622 412.953 170.16H411.953ZM411.521 174.264L410.543 174.054C410.268 175.335 409.881 176.542 409.381 177.677L410.297 178.08L411.212 178.483C411.769 177.218 412.197 175.881 412.498 174.474L411.521 174.264ZM410.297 178.08L409.381 177.677C408.881 178.815 408.284 179.855 407.593 180.802L408.401 181.392L409.208 181.982C409.989 180.913 410.656 179.745 411.212 178.483L410.297 178.08ZM408.401 181.392L407.587 180.811C406.914 181.752 406.166 182.559 405.342 183.235L405.977 184.008L406.611 184.781C407.58 183.985 408.447 183.048 409.214 181.973L408.401 181.392ZM405.977 184.008L405.342 183.235C404.52 183.91 403.646 184.433 402.72 184.81L403.097 185.736L403.473 186.662C404.595 186.207 405.641 185.578 406.611 184.781L405.977 184.008ZM403.097 185.736L402.715 184.812C401.828 185.178 400.909 185.36 399.953 185.36V186.36V187.36C401.172 187.36 402.349 187.126 403.478 186.66L403.097 185.736ZM399.953 186.36V185.36C398.953 185.36 398.087 185.182 397.336 184.847L396.929 185.76L396.521 186.673C397.562 187.138 398.712 187.36 399.953 187.36V186.36ZM396.929 185.76L397.342 184.85C396.575 184.501 395.901 184.028 395.316 183.429L394.601 184.128L393.885 184.827C394.644 185.604 395.523 186.219 396.515 186.67L396.929 185.76ZM394.601 184.128L393.608 184.005L392.384 193.917L393.377 194.04L394.369 194.163L395.593 184.251L394.601 184.128ZM393.377 194.04V193.04H387.617V194.04V195.04H393.377V194.04ZM387.617 194.04L388.609 194.161L392.593 161.473L391.601 161.352L390.608 161.231L386.624 193.919L387.617 194.04ZM391.601 161.352V162.352H394.601V161.352V160.352H391.601V161.352ZM394.601 161.352V162.352C395.071 162.352 395.277 162.466 395.37 162.55L396.041 161.808L396.712 161.066C396.132 160.542 395.378 160.352 394.601 160.352V161.352ZM396.041 161.808L395.387 162.565C395.435 162.607 395.569 162.758 395.569 163.272H396.569H397.569C397.569 162.442 397.35 161.617 396.694 161.051L396.041 161.808ZM396.569 163.272L395.57 163.224L395.402 166.752L396.401 166.8L397.399 166.848L397.567 163.32L396.569 163.272Z" fill="#A68B71" mask="url(#path-6-outside-2_89_22)"/>
</svg>
